<?xml version="1.0" encoding="UTF-8" standalone="no"?>
<!-- Created with Inkscape (http://www.inkscape.org/) -->

<svg
   xmlns:dc="http://purl.org/dc/elements/1.1/"
   xmlns:cc="http://creativecommons.org/ns#"
   xmlns:rdf="http://www.w3.org/1999/02/22-rdf-syntax-ns#"
   xmlns:svg="http://www.w3.org/2000/svg"
   xmlns="http://www.w3.org/2000/svg"
   xmlns:sodipodi="http://sodipodi.sourceforge.net/DTD/sodipodi-0.dtd"
   xmlns:inkscape="http://www.inkscape.org/namespaces/inkscape"
   version="1.1"
   id="svg2"
   xml:space="preserve"
   width="943.39612"
   height="180.59599"
   viewBox="0 0 943.39614 180.59599"
   sodipodi:docname="logo.svg"
   inkscape:version="0.92.1 r15371"><metadata
     id="metadata8"><rdf:RDF><cc:Work
         rdf:about=""><dc:format>image/svg+xml</dc:format><dc:type
           rdf:resource="http://purl.org/dc/dcmitype/StillImage" /><dc:title></dc:title></cc:Work></rdf:RDF></metadata><defs
     id="defs6"><clipPath
       clipPathUnits="userSpaceOnUse"
       id="clipPath18"><path
         d="m 48.861,287.082 h 293.41 v 10.25 H 48.861 Z"
         id="path16"
         inkscape:connector-curvature="0" /></clipPath><clipPath
       clipPathUnits="userSpaceOnUse"
       id="clipPath26"><path
         d="M -32767,32767 H 32767 V -32767 H -32767 Z"
         id="path24"
         inkscape:connector-curvature="0" /></clipPath><radialGradient
       fx="0"
       fy="0"
       cx="0"
       cy="0"
       r="1"
       gradientUnits="userSpaceOnUse"
       gradientTransform="matrix(103.84326,0,0,-79.808609,195.56738,292.20703)"
       spreadMethod="pad"
       id="radialGradient34"><stop
         style="stop-opacity:1;stop-color:#ffffff"
         offset="0"
         id="stop28" /><stop
         style="stop-opacity:1;stop-color:#ffffff"
         offset="0.79908705"
         id="stop30" /><stop
         style="stop-opacity:0;stop-color:#ffffff"
         offset="1"
         id="stop32" /></radialGradient><mask
       maskUnits="userSpaceOnUse"
       x="0"
       y="0"
       width="1"
       height="1"
       id="mask36"><g
         id="g46"><g
           clip-path="url(#clipPath26)"
           id="g44"><g
             id="g42"><g
               id="g40"><path
                 d="M -32767,32767 H 32767 V -32767 H -32767 Z"
                 style="fill:url(#radialGradient34);stroke:none"
                 id="path38"
                 inkscape:connector-curvature="0" /></g></g></g></g></mask><radialGradient
       fx="0"
       fy="0"
       cx="0"
       cy="0"
       r="1"
       gradientUnits="userSpaceOnUse"
       gradientTransform="matrix(103.84326,0,0,-79.808609,195.56738,292.20703)"
       spreadMethod="pad"
       id="radialGradient58"><stop
         style="stop-opacity:1;stop-color:#ed1c24"
         offset="0"
         id="stop52" /><stop
         style="stop-opacity:1;stop-color:#ed1c24"
         offset="0.79908705"
         id="stop54" /><stop
         style="stop-opacity:1;stop-color:#ffffff"
         offset="1"
         id="stop56" /></radialGradient><clipPath
       clipPathUnits="userSpaceOnUse"
       id="clipPath68"><path
         d="m 134.607,297.793 v -0.053 c 0.015,-36.547 29.959,-66.192 66.852,-66.205 v 0 h 0.064 c 36.987,0.013 66.936,29.678 66.936,66.224 v 0 c 0,36.557 -29.962,66.223 -66.968,66.223 v 0 c -36.914,0 -66.869,-29.651 -66.884,-66.189"
         id="path66"
         inkscape:connector-curvature="0" /></clipPath><clipPath
       clipPathUnits="userSpaceOnUse"
       id="clipPath78"><path
         d="M 315.06886,251.30058 247.20796,411.1706 87.098412,343.20824 154.95932,183.33822 Z"
         id="path76"
         inkscape:connector-curvature="0" /></clipPath><linearGradient
       x1="0.0599976"
       y1="0"
       x2="0.94000202"
       y2="0"
       gradientUnits="userSpaceOnUse"
       gradientTransform="matrix(-78.144043,184.09554,-171.1344,-72.64212,325.35107,241.11133)"
       spreadMethod="pad"
       id="linearGradient90"><stop
         style="stop-opacity:1;stop-color:#7b7979"
         offset="0"
         id="stop80" /><stop
         style="stop-opacity:1;stop-color:#e9e9e9"
         offset="0.360001"
         id="stop82" /><stop
         style="stop-opacity:1;stop-color:#7b7979"
         offset="0.570007"
         id="stop84" /><stop
         style="stop-opacity:1;stop-color:#f8f8f8"
         offset="0.779999"
         id="stop86" /><stop
         style="stop-opacity:1;stop-color:#7b7979"
         offset="1"
         id="stop88" /></linearGradient><clipPath
       clipPathUnits="userSpaceOnUse"
       id="clipPath100"><path
         d="m 136.954,297.793 v -0.053 c 0.012,-35.267 28.905,-63.864 64.505,-63.877 v 0 h 0.064 c 35.695,0.013 64.589,28.635 64.589,63.896 v 0 c 0,35.281 -28.913,63.895 -64.621,63.895 v 0 c -35.617,0 -64.525,-28.601 -64.537,-63.861"
         id="path98"
         inkscape:connector-curvature="0" /></clipPath><clipPath
       clipPathUnits="userSpaceOnUse"
       id="clipPath110"><path
         d="m 264.62636,367.61008 -134.31756,-7.03923 6.97059,-133.00662 134.31756,7.03923 z"
         id="path108"
         inkscape:connector-curvature="0" /></clipPath><linearGradient
       x1="0.0200043"
       y1="0"
       x2="0.97999603"
       y2="0"
       gradientUnits="userSpaceOnUse"
       gradientTransform="matrix(-141.7814,-7.4303894,7.0505219,-134.53185,268.87158,369.18701)"
       spreadMethod="pad"
       id="linearGradient126"><stop
         style="stop-opacity:1;stop-color:#a7a5a6"
         offset="0"
         id="stop112" /><stop
         style="stop-opacity:1;stop-color:#c8c7c7"
         offset="0.160004"
         id="stop114" /><stop
         style="stop-opacity:1;stop-color:#ffffff"
         offset="0.300003"
         id="stop116" /><stop
         style="stop-opacity:1;stop-color:#c8c7c7"
         offset="0.5"
         id="stop118" /><stop
         style="stop-opacity:1;stop-color:#a7a5a6"
         offset="0.600006"
         id="stop120" /><stop
         style="stop-opacity:1;stop-color:#d1d0d0"
         offset="0.75"
         id="stop122" /><stop
         style="stop-opacity:1;stop-color:#ffffff"
         offset="1"
         id="stop124" /></linearGradient><clipPath
       clipPathUnits="userSpaceOnUse"
       id="clipPath136"><path
         d="m 195.379,354.766 c -26.553,-2.752 -47.752,-23.265 -51.267,-49.33 v 0 -15.342 c 3.228,-23.935 21.354,-43.181 44.844,-48.311 v 0 h 25.076 c 22.105,4.826 39.499,22.137 44.185,44.084 v 0 23.785 c -5.132,24.039 -25.504,42.512 -50.618,45.114 v 0 z"
         id="path134"
         inkscape:connector-curvature="0" /></clipPath><clipPath
       clipPathUnits="userSpaceOnUse"
       id="clipPath146"><path
         d="M 142.86181,241.78411 H 258.21746 V 356.1159 H 142.86181 Z"
         id="path144"
         inkscape:connector-curvature="0" /></clipPath><radialGradient
       fx="0"
       fy="0"
       cx="0"
       cy="0"
       r="1.23"
       gradientUnits="userSpaceOnUse"
       gradientTransform="matrix(115.87361,0,0,115.87361,160.21921,344.64453)"
       spreadMethod="pad"
       id="radialGradient156"><stop
         style="stop-opacity:1;stop-color:#ffffff"
         offset="0"
         id="stop148" /><stop
         style="stop-opacity:1;stop-color:#f4f4f4"
         offset="0.0800018"
         id="stop150" /><stop
         style="stop-opacity:1;stop-color:#bdbcbc"
         offset="0.460007"
         id="stop152" /><stop
         style="stop-opacity:1;stop-color:#a3a1a1"
         offset="1"
         id="stop154" /></radialGradient><clipPath
       clipPathUnits="userSpaceOnUse"
       id="clipPath194"><path
         d="M 0,595.275 H 841.889 V 0 H 0 Z"
         id="path192"
         inkscape:connector-curvature="0" /></clipPath></defs><sodipodi:namedview
     pagecolor="#ffffff"
     bordercolor="#666666"
     borderopacity="1"
     objecttolerance="10"
     gridtolerance="10"
     guidetolerance="10"
     inkscape:pageopacity="0"
     inkscape:pageshadow="2"
     inkscape:window-width="640"
     inkscape:window-height="480"
     id="namedview4"
     showgrid="false"
     fit-margin-top="2"
     fit-margin-left="2"
     fit-margin-right="2"
     fit-margin-bottom="2"
     inkscape:zoom="0.29734156"
     inkscape:cx="498.11134"
     inkscape:cy="90.136668"
     inkscape:window-x="24"
     inkscape:window-y="0"
     inkscape:window-maximized="0"
     inkscape:current-layer="g10" /><g
     id="g10"
     inkscape:groupmode="layer"
     inkscape:label="albatrans-logo-310712"
     transform="matrix(1.3333333,0,0,-1.3333333,-63.147998,487.30932)"><g
       id="g12"><g
         id="g14"
         clip-path="url(#clipPath18)"><g
           id="g20"><g
             id="g22" /><g
             id="g48"
             mask="url(#mask36)"><g
               id="g50"><path
                 d="m 48.861,287.082 h 293.41 v 10.25 H 48.861 Z"
                 style="fill:url(#radialGradient58);stroke:none"
                 id="path60"
                 inkscape:connector-curvature="0" /></g></g></g></g></g><g
       id="g62"><g
         id="g64"
         clip-path="url(#clipPath68)"><g
           id="g70"><g
             id="g72"><g
               id="g74"
               clip-path="url(#clipPath78)"><path
                 d="m 134.607,297.793 v -0.053 c 0.015,-36.547 29.959,-66.192 66.852,-66.205 v 0 h 0.064 c 36.987,0.013 66.936,29.678 66.936,66.224 v 0 c 0,36.557 -29.962,66.223 -66.968,66.223 v 0 c -36.914,0 -66.869,-29.651 -66.884,-66.189"
                 style="fill:url(#linearGradient90);stroke:none"
                 id="path92"
                 inkscape:connector-curvature="0" /></g></g></g></g></g><g
       id="g94"><g
         id="g96"
         clip-path="url(#clipPath100)"><g
           id="g102"><g
             id="g104"><g
               id="g106"
               clip-path="url(#clipPath110)"><path
                 d="m 136.954,297.793 v -0.053 c 0.012,-35.267 28.905,-63.864 64.505,-63.877 v 0 h 0.064 c 35.695,0.013 64.589,28.635 64.589,63.896 v 0 c 0,35.281 -28.913,63.895 -64.621,63.895 v 0 c -35.617,0 -64.525,-28.601 -64.537,-63.861"
                 style="fill:url(#linearGradient126);stroke:none"
                 id="path128"
                 inkscape:connector-curvature="0" /></g></g></g></g></g><g
       id="g130"><g
         id="g132"
         clip-path="url(#clipPath136)"><g
           id="g138"><g
             id="g140"><g
               id="g142"
               clip-path="url(#clipPath146)"><path
                 d="m 195.379,354.766 c -26.553,-2.752 -47.752,-23.265 -51.267,-49.33 v 0 -15.342 c 3.228,-23.935 21.354,-43.181 44.844,-48.311 v 0 h 25.076 c 22.105,4.826 39.499,22.137 44.185,44.084 v 0 23.785 c -5.132,24.039 -25.504,42.512 -50.618,45.114 v 0 z"
                 style="fill:url(#radialGradient156);stroke:none"
                 id="path158"
                 inkscape:connector-curvature="0" /></g></g></g></g></g><g
       id="g160"
       transform="translate(164.9727,284.9297)"><path
         d="M 0,0 18.461,31.759 35.303,0 Z M 42.914,-14.512 H -8.34 l 5.829,10.106 h 40.087 z"
         style="fill:#231f20;fill-opacity:1;fill-rule:evenodd;stroke:none"
         id="path162"
         inkscape:connector-curvature="0" /></g><g
       id="g164"
       transform="translate(247.2168,269.7021)"><path
         d="m 0,0 h -29.189 l -29.043,57.472 -32.903,-0.076 v 3.9 H 0 l -0.146,-3.824 h -29.859 z"
         style="fill:#231f20;fill-opacity:1;fill-rule:evenodd;stroke:none"
         id="path166"
         inkscape:connector-curvature="0" /></g><g
       id="g168"
       transform="translate(167.3193,285.2568)"><path
         d="M 0,0 18.462,31.744 35.23,0 Z M 42.915,-14.52 H -8.338 l 5.75,10.106 h 40.16 z"
         style="fill:#ed1c24;fill-opacity:1;fill-rule:evenodd;stroke:none"
         id="path170"
         inkscape:connector-curvature="0" /></g><g
       id="g172"
       transform="translate(315.6211,296.792)"><path
         d="M 0,0 -7.639,20.571 -15.125,0 Z M 20.609,-21.933 H 8.433 L 3.592,-9.341 h -22.159 l -4.576,-12.592 h -11.873 l 21.592,55.436 h 11.836 z"
         style="fill:#ed1c24;fill-opacity:1;fill-rule:nonzero;stroke:none"
         id="path174"
         inkscape:connector-curvature="0" /></g><g
       id="g176"
       transform="translate(301.2095,297.292)"><path
         d="M 0,0 H 13.692 L 6.778,18.622 Z M 15.131,-1 H -1.428 l 8.196,22.52 z m 8.057,-20.933 H 34.282 L 12.485,32.503 H 1.33 l -21.203,-54.436 h 10.792 l 4.576,12.592 h 22.852 z m 12.571,-1 H 22.501 l -4.84,12.592 H -3.805 L -8.381,-22.933 H -21.336 L 0.646,33.503 h 12.516 z"
         style="fill:#ed1c24;fill-opacity:1;fill-rule:nonzero;stroke:none"
         id="path178"
         inkscape:connector-curvature="0" /></g><g
       id="g180"
       transform="translate(342.4697,274.8594)"><path
         d="M 0,0 V 54.982 H 11.193 V 9.34 H 39.024 V 0 Z"
         style="fill:#ed1c24;fill-opacity:1;fill-rule:nonzero;stroke:none"
         id="path182"
         inkscape:connector-curvature="0" /></g><g
       id="g184"
       transform="translate(342.9697,275.3594)"><path
         d="M 0,0 H 38.024 V 8.34 H 10.193 V 53.982 H 0 Z M 39.024,-1 H -1 V 54.982 H 11.193 V 9.34 h 27.831 z"
         style="fill:#ed1c24;fill-opacity:1;fill-rule:nonzero;stroke:none"
         id="path186"
         inkscape:connector-curvature="0" /></g><g
       id="g188"><g
         id="g190"
         clip-path="url(#clipPath194)"><g
           id="g196"
           transform="translate(400.7036,299.0229)"><path
             d="m 0,0 v -14.824 h 10.361 c 4.034,0 6.592,0.115 7.676,0.341 1.664,0.303 3.02,1.04 4.066,2.212 1.045,1.172 1.569,2.741 1.569,4.708 0,1.664 -0.403,3.075 -1.21,4.235 -0.808,1.16 -1.974,2.004 -3.498,2.534 C 17.438,-0.265 14.129,0 9.037,0 Z M 0,22.046 V 9.227 h 7.336 c 4.361,0 7.071,0.062 8.131,0.189 1.915,0.227 3.422,0.888 4.517,1.985 1.098,1.097 1.646,2.539 1.646,4.329 0,1.715 -0.473,3.107 -1.418,4.179 -0.945,1.071 -2.351,1.721 -4.216,1.947 -1.11,0.126 -4.299,0.19 -9.567,0.19 z m -11.193,9.226 h 22.16 c 4.386,0 7.656,-0.183 9.812,-0.548 2.156,-0.366 4.084,-1.128 5.785,-2.287 1.702,-1.161 3.121,-2.705 4.254,-4.633 1.135,-1.929 1.703,-4.091 1.703,-6.485 0,-2.597 -0.701,-4.979 -2.099,-7.147 -1.4,-2.169 -3.297,-3.795 -5.692,-4.878 3.378,-0.983 5.975,-2.66 7.791,-5.029 1.815,-2.37 2.722,-5.156 2.722,-8.357 0,-2.522 -0.587,-4.973 -1.759,-7.356 -1.171,-2.382 -2.773,-4.285 -4.802,-5.71 -2.03,-1.424 -4.532,-2.3 -7.506,-2.628 -1.865,-0.202 -6.365,-0.328 -13.5,-0.378 h -18.869 z"
             style="fill:#ed1c24;fill-opacity:1;fill-rule:nonzero;stroke:none"
             id="path198"
             inkscape:connector-curvature="0" /></g><g
           id="g200"
           transform="translate(401.2036,308.7495)"><path
             d="m 0,0 h 6.836 c 4.325,0 7.041,0.063 8.071,0.186 1.793,0.212 3.214,0.832 4.224,1.842 1.009,1.008 1.499,2.308 1.499,3.976 0,1.58 -0.435,2.875 -1.293,3.848 -0.858,0.972 -2.171,1.571 -3.901,1.781 -1.086,0.124 -4.286,0.186 -9.507,0.186 H 0 Z M 6.836,-1 H -1 v 13.819 h 6.929 c 5.333,0 8.481,-0.063 9.623,-0.193 1.985,-0.24 3.511,-0.951 4.535,-2.112 C 21.11,9.353 21.63,7.835 21.63,6.004 21.63,4.084 21.027,2.509 19.838,1.321 18.666,0.148 17.047,-0.568 15.025,-0.808 13.941,-0.937 11.262,-1 6.836,-1 M 0,-24.05 h 9.861 c 3.977,0 6.526,0.111 7.575,0.33 1.556,0.283 2.829,0.974 3.793,2.055 0.958,1.073 1.443,2.544 1.443,4.375 0,1.552 -0.377,2.881 -1.12,3.951 -0.743,1.065 -1.837,1.855 -3.252,2.346 -1.465,0.509 -4.749,0.766 -9.763,0.766 H 0 Z m 9.861,-1 H -1 v 15.823 h 9.537 c 5.197,0 8.498,-0.269 10.091,-0.822 1.618,-0.561 2.878,-1.476 3.744,-2.719 0.862,-1.241 1.3,-2.762 1.3,-4.522 0,-2.084 -0.57,-3.78 -1.696,-5.041 -1.118,-1.251 -2.58,-2.048 -4.349,-2.371 -1.119,-0.233 -3.663,-0.348 -7.766,-0.348 m -21.054,-8.34 H 7.174 c 7.084,0.05 11.607,0.176 13.448,0.375 2.873,0.316 5.32,1.171 7.273,2.54 1.951,1.37 3.512,3.227 4.641,5.521 1.133,2.304 1.707,4.704 1.707,7.135 0,3.074 -0.882,5.784 -2.619,8.053 -1.741,2.272 -4.276,3.905 -7.533,4.853 l -1.299,0.378 1.232,0.558 c 2.295,1.038 4.138,2.618 5.478,4.693 1.339,2.077 2.019,4.39 2.019,6.876 0,2.294 -0.55,4.39 -1.633,6.232 -1.091,1.854 -2.472,3.359 -4.105,4.473 -1.634,1.113 -3.513,1.856 -5.588,2.207 -2.119,0.36 -5.392,0.542 -9.728,0.542 h -21.66 z m 18.371,-1 h -19.371 v 56.436 h 22.66 c 4.39,0 7.721,-0.187 9.896,-0.555 2.217,-0.377 4.23,-1.173 5.983,-2.368 1.757,-1.198 3.238,-2.81 4.403,-4.792 1.176,-1.998 1.772,-4.265 1.772,-6.739 0,-2.681 -0.734,-5.177 -2.179,-7.418 -1.224,-1.896 -2.835,-3.408 -4.801,-4.506 2.91,-1.043 5.22,-2.663 6.876,-4.826 1.875,-2.448 2.826,-5.362 2.826,-8.661 0,-2.585 -0.609,-5.134 -1.81,-7.576 -1.204,-2.446 -2.873,-4.431 -4.964,-5.898 -2.091,-1.468 -4.695,-2.381 -7.739,-2.716 -1.875,-0.203 -6.433,-0.331 -13.55,-0.381 z"
             style="fill:#ed1c24;fill-opacity:1;fill-rule:nonzero;stroke:none"
             id="path202"
             inkscape:connector-curvature="0" /></g><g
           id="g204"
           transform="translate(474.7827,296.792)"><path
             d="M 0,0 -7.639,20.571 -15.126,0 Z M 20.608,-21.933 H 8.433 L 3.592,-9.341 h -22.159 l -4.576,-12.592 h -11.874 l 21.592,55.436 h 11.836 z"
             style="fill:#ed1c24;fill-opacity:1;fill-rule:nonzero;stroke:none"
             id="path206"
             inkscape:connector-curvature="0" /></g><g
           id="g208"
           transform="translate(460.3706,297.292)"><path
             d="M 0,0 H 13.693 L 6.778,18.622 Z M 15.131,-1 H -1.428 l 8.197,22.52 z m 8.057,-20.933 H 34.281 L 12.484,32.503 H 1.329 l -21.202,-54.436 h 10.792 l 4.575,12.592 h 22.854 z m 12.572,-1 H 22.501 L 17.66,-10.341 H -3.805 L -8.38,-22.933 H -21.336 L 0.646,33.503 h 12.516 l 0.125,-0.314 z"
             style="fill:#ed1c24;fill-opacity:1;fill-rule:nonzero;stroke:none"
             id="path210"
             inkscape:connector-curvature="0" /></g><g
           id="g212"
           transform="translate(508.0591,274.8594)"><path
             d="m 0,0 v 46.058 h -16.449 v 9.378 H 27.604 V 46.058 H 11.193 V 0 Z"
             style="fill:#231f20;fill-opacity:1;fill-rule:nonzero;stroke:none"
             id="path214"
             inkscape:connector-curvature="0" /></g><g
           id="g216"
           transform="translate(508.5591,275.3594)"><path
             d="m 0,0 h 10.193 v 46.058 h 16.411 v 8.378 H -16.449 V 46.058 H 0 Z M 11.193,-1 H -1 V 45.058 H -17.449 V 55.436 H 27.604 V 45.058 H 11.193 Z"
             style="fill:#231f20;fill-opacity:1;fill-rule:nonzero;stroke:none"
             id="path218"
             inkscape:connector-curvature="0" /></g><g
           id="g220"
           transform="translate(554.1167,306.8506)"><path
             d="m 0,0 h 8.281 c 5.37,0 8.723,0.227 10.059,0.681 1.336,0.453 2.383,1.235 3.139,2.344 0.756,1.109 1.134,2.496 1.134,4.16 0,1.865 -0.498,3.371 -1.494,4.519 -0.996,1.146 -2.401,1.871 -4.216,2.174 -0.908,0.125 -3.631,0.189 -8.168,0.189 H 0 Z m -11.193,-31.991 v 55.436 h 23.558 c 5.924,0 10.229,-0.498 12.914,-1.494 2.685,-0.996 4.833,-2.767 6.448,-5.313 1.613,-2.546 2.419,-5.458 2.419,-8.735 0,-4.159 -1.222,-7.595 -3.667,-10.304 -2.446,-2.711 -6.102,-4.419 -10.966,-5.124 2.42,-1.413 4.417,-2.962 5.993,-4.652 1.575,-1.688 3.699,-4.688 6.372,-9 l 6.768,-10.814 H 25.26 l -8.092,12.062 c -2.874,4.312 -4.841,7.028 -5.899,8.15 -1.059,1.122 -2.181,1.89 -3.366,2.306 -1.185,0.416 -3.063,0.624 -5.634,0.624 H 0 v -23.142 z"
             style="fill:#231f20;fill-opacity:1;fill-rule:nonzero;stroke:none"
             id="path222"
             inkscape:connector-curvature="0" /></g><g
           id="g224"
           transform="translate(554.6167,307.3506)"><path
             d="m 0,0 h 7.781 c 5.291,0 8.621,0.22 9.898,0.654 1.225,0.416 2.197,1.14 2.886,2.153 0.696,1.018 1.048,2.323 1.048,3.878 0,1.732 -0.462,3.142 -1.372,4.191 -0.913,1.051 -2.232,1.727 -3.92,2.009 -0.871,0.12 -3.596,0.182 -8.086,0.182 L 0,13.067 Z M 7.781,-1 H -1 v 15.067 h 9.235 c 4.599,0 7.293,-0.064 8.237,-0.194 1.937,-0.323 3.455,-1.11 4.525,-2.341 1.072,-1.236 1.616,-2.867 1.616,-4.847 0,-1.76 -0.411,-3.254 -1.221,-4.442 C 20.577,1.048 19.437,0.195 18.001,-0.293 16.601,-0.769 13.258,-1 7.781,-1 m 17.245,-30.991 h 12.218 l -6.29,10.049 c -2.644,4.265 -4.768,7.267 -6.313,8.924 -1.536,1.646 -3.514,3.18 -5.88,4.561 l -1.237,0.721 1.417,0.205 c 4.724,0.686 8.313,2.356 10.666,4.965 2.349,2.602 3.539,5.956 3.539,9.969 0,3.165 -0.788,6.014 -2.342,8.468 -1.547,2.439 -3.632,4.159 -6.199,5.111 -2.617,0.971 -6.904,1.463 -12.74,1.463 H -11.193 V -31.991 H -1 v 23.142 h 2.769 c 2.652,0 4.549,-0.213 5.8,-0.652 1.256,-0.441 2.454,-1.26 3.563,-2.436 1.091,-1.155 3.038,-3.842 5.952,-8.214 z m 14.023,-1 H 24.493 l -8.24,12.284 c -2.844,4.266 -4.812,6.985 -5.848,8.085 -0.998,1.058 -2.063,1.79 -3.168,2.178 -1.126,0.395 -2.966,0.595 -5.468,0.595 H 0 v -23.142 h -12.193 v 56.436 h 24.058 c 5.955,0 10.359,-0.513 13.088,-1.525 2.776,-1.03 5.029,-2.885 6.695,-5.514 1.659,-2.616 2.498,-5.645 2.498,-9.003 0,-4.268 -1.277,-7.848 -3.796,-10.639 -2.285,-2.532 -5.621,-4.231 -9.934,-5.06 1.948,-1.244 3.611,-2.6 4.955,-4.04 1.591,-1.704 3.754,-4.759 6.432,-9.077 z"
             style="fill:#231f20;fill-opacity:1;fill-rule:nonzero;stroke:none"
             id="path226"
             inkscape:connector-curvature="0" /></g><g
           id="g228"
           transform="translate(628.1958,296.792)"><path
             d="M 0,0 -7.639,20.571 -15.126,0 Z M 20.608,-21.933 H 8.433 L 3.592,-9.341 h -22.159 l -4.576,-12.592 h -11.874 l 21.592,55.436 h 11.836 z"
             style="fill:#231f20;fill-opacity:1;fill-rule:nonzero;stroke:none"
             id="path230"
             inkscape:connector-curvature="0" /></g><g
           id="g232"
           transform="translate(613.7837,297.292)"><path
             d="M 0,0 H 13.693 L 6.778,18.622 Z M 15.131,-1 H -1.428 l 8.197,22.52 z m 8.057,-20.933 H 34.281 L 12.484,32.503 H 1.329 l -21.202,-54.436 h 10.792 l 4.575,12.592 h 22.854 z m 12.572,-1 H 22.501 L 17.66,-10.341 H -3.805 L -8.38,-22.933 H -21.336 L 0.646,33.503 h 12.516 l 0.125,-0.314 z"
             style="fill:#231f20;fill-opacity:1;fill-rule:nonzero;stroke:none"
             id="path234"
             inkscape:connector-curvature="0" /></g><g
           id="g236"
           transform="translate(654.855,274.8594)"><path
             d="m 0,0 v 55.436 h 10.891 l 22.688,-37.02 v 37.02 H 43.978 V 0 H 32.747 L 10.398,36.15 V 0 Z"
             style="fill:#231f20;fill-opacity:1;fill-rule:nonzero;stroke:none"
             id="path238"
             inkscape:connector-curvature="0" /></g><g
           id="g240"
           transform="translate(687.8804,275.3594)"><path
             d="M 0,0 H 10.452 V 54.436 H 1.054 V 16.144 l -23.469,38.292 h -10.11 V 0 h 9.398 V 37.41 Z M 11.452,-1 H -0.557 l -21.57,34.891 V -1 h -11.398 v 56.436 h 11.671 L 0.054,19.688 v 35.748 h 11.398 z"
             style="fill:#231f20;fill-opacity:1;fill-rule:nonzero;stroke:none"
             id="path242"
             inkscape:connector-curvature="0" /></g><g
           id="g244"
           transform="translate(707.8325,292.8965)"><path
             d="m 0,0 10.891,1.06 c 0.655,-3.657 1.985,-6.341 3.99,-8.055 2.004,-1.715 4.707,-2.571 8.11,-2.571 3.606,0 6.322,0.761 8.15,2.287 1.827,1.525 2.741,3.309 2.741,5.351 0,1.311 -0.385,2.426 -1.153,3.346 -0.769,0.921 -2.112,1.721 -4.028,2.402 -1.31,0.453 -4.298,1.26 -8.962,2.42 -6,1.487 -10.21,3.315 -12.63,5.483 -3.403,3.05 -5.104,6.769 -5.104,11.155 0,2.823 0.8,5.464 2.401,7.922 1.601,2.458 3.907,4.33 6.92,5.616 3.012,1.285 6.649,1.928 10.909,1.928 6.958,0 12.196,-1.525 15.712,-4.575 3.517,-3.051 5.364,-7.123 5.54,-12.214 L 32.294,21.063 c -0.48,2.849 -1.507,4.897 -3.082,6.145 -1.575,1.248 -3.94,1.872 -7.09,1.872 -3.252,0 -5.799,-0.668 -7.639,-2.004 -1.185,-0.858 -1.777,-2.005 -1.777,-3.442 0,-1.311 0.555,-2.433 1.664,-3.365 1.411,-1.186 4.84,-2.42 10.285,-3.706 5.446,-1.286 9.473,-2.616 12.082,-3.989 2.61,-1.375 4.652,-3.252 6.126,-5.635 1.475,-2.382 2.212,-5.326 2.212,-8.83 0,-3.175 -0.883,-6.151 -2.646,-8.923 -1.766,-2.774 -4.261,-4.834 -7.488,-6.183 -3.227,-1.349 -7.248,-2.024 -12.063,-2.024 -7.009,0 -12.391,1.621 -16.147,4.86 C 2.975,-10.922 0.731,-6.201 0,0"
             style="fill:#231f20;fill-opacity:1;fill-rule:nonzero;stroke:none"
             id="path246"
             inkscape:connector-curvature="0" /></g><g
           id="g248"
           transform="translate(708.3931,292.4482)"><path
             d="m 0,0 c 0.774,-5.799 2.959,-10.283 6.497,-13.334 3.646,-3.145 8.969,-4.738 15.82,-4.738 4.725,0 8.719,0.668 11.871,1.984 3.115,1.303 5.557,3.317 7.258,5.99 1.704,2.679 2.569,5.591 2.569,8.656 0,3.393 -0.719,6.275 -2.137,8.567 -1.42,2.293 -3.416,4.128 -5.935,5.455 -2.56,1.348 -6.586,2.675 -11.964,3.944 -5.575,1.317 -9.006,2.563 -10.491,3.81 -1.222,1.028 -1.842,2.289 -1.842,3.749 0,1.6 0.667,2.894 1.984,3.846 1.918,1.392 4.587,2.099 7.932,2.099 3.251,0 5.742,-0.666 7.4,-1.98 1.585,-1.256 2.655,-3.279 3.185,-6.018 l 10.257,0.45 c -0.271,4.698 -2.068,8.517 -5.344,11.359 -3.408,2.955 -8.583,4.453 -15.385,4.453 -4.173,0 -7.778,-0.635 -10.713,-1.888 -2.906,-1.24 -5.159,-3.067 -6.697,-5.428 -1.54,-2.363 -2.321,-4.937 -2.321,-7.65 0,-4.218 1.661,-7.846 4.939,-10.783 2.346,-2.103 6.524,-3.909 12.416,-5.37 4.657,-1.158 7.686,-1.976 9.005,-2.432 2.026,-0.72 3.415,-1.555 4.248,-2.554 0.843,-1.008 1.269,-2.242 1.269,-3.666 0,-2.188 -0.982,-4.118 -2.921,-5.736 -1.911,-1.595 -4.76,-2.403 -8.469,-2.403 -3.511,0 -6.349,0.905 -8.436,2.691 -2,1.71 -3.369,4.364 -4.071,7.893 z m 22.317,-19.072 c -7.098,0 -12.64,1.676 -16.472,4.98 -3.837,3.308 -6.158,8.18 -6.902,14.482 l -0.06,0.506 11.858,1.154 0.081,-0.454 c 0.631,-3.522 1.917,-6.134 3.824,-7.763 1.9,-1.627 4.519,-2.451 7.785,-2.451 3.468,0 6.102,0.73 7.829,2.171 1.723,1.439 2.561,3.064 2.561,4.968 0,1.2 -0.339,2.189 -1.037,3.025 -0.706,0.846 -1.988,1.602 -3.811,2.251 -1.286,0.445 -4.287,1.255 -8.915,2.406 -6.051,1.5 -10.372,3.382 -12.843,5.595 -3.497,3.135 -5.271,7.014 -5.271,11.528 0,2.91 0.835,5.667 2.483,8.195 1.647,2.531 4.051,4.483 7.142,5.803 3.061,1.306 6.797,1.968 11.106,1.968 7.049,0 12.445,-1.58 16.039,-4.697 3.609,-3.131 5.531,-7.362 5.713,-12.574 l 0.016,-0.496 -12.13,-0.533 -0.073,0.436 c -0.456,2.71 -1.431,4.674 -2.899,5.836 -1.478,1.171 -3.759,1.764 -6.779,1.764 -3.13,0 -5.601,-0.642 -7.345,-1.909 -1.058,-0.765 -1.571,-1.758 -1.571,-3.036 0,-1.167 0.486,-2.143 1.485,-2.983 1.344,-1.128 4.734,-2.34 10.079,-3.602 5.459,-1.289 9.564,-2.646 12.199,-4.034 2.679,-1.41 4.804,-3.366 6.319,-5.813 1.517,-2.452 2.287,-5.511 2.287,-9.093 0,-3.258 -0.917,-6.351 -2.725,-9.193 -1.813,-2.848 -4.409,-4.993 -7.717,-6.375 -3.274,-1.369 -7.397,-2.062 -12.256,-2.062"
             style="fill:#231f20;fill-opacity:1;fill-rule:nonzero;stroke:none"
             id="path250"
             inkscape:connector-curvature="0" /></g></g></g></g></svg>