<?xml version="1.0" encoding="UTF-8" standalone="no"?>
<!-- Created with Inkscape (http://www.inkscape.org/) -->

<svg
   xmlns:dc="http://purl.org/dc/elements/1.1/"
   xmlns:cc="http://creativecommons.org/ns#"
   xmlns:rdf="http://www.w3.org/1999/02/22-rdf-syntax-ns#"
   xmlns:svg="http://www.w3.org/2000/svg"
   xmlns="http://www.w3.org/2000/svg"
   xmlns:sodipodi="http://sodipodi.sourceforge.net/DTD/sodipodi-0.dtd"
   xmlns:inkscape="http://www.inkscape.org/namespaces/inkscape"
   version="1.1"
   id="svg2"
   xml:space="preserve"
   width="182.46933"
   height="180.59599"
   viewBox="0 0 182.46933 180.59599"
   sodipodi:docname="logo-mobile.svg"
   inkscape:version="0.92.1 r15371"><metadata
     id="metadata8"><rdf:RDF><cc:Work
         rdf:about=""><dc:format>image/svg+xml</dc:format><dc:type
           rdf:resource="http://purl.org/dc/dcmitype/StillImage" /><dc:title></dc:title></cc:Work></rdf:RDF></metadata><defs
     id="defs6"><clipPath
       clipPathUnits="userSpaceOnUse"
       id="clipPath18"><path
         d="m 48.861,287.082 h 293.41 v 10.25 H 48.861 Z"
         id="path16"
         inkscape:connector-curvature="0" /></clipPath><clipPath
       clipPathUnits="userSpaceOnUse"
       id="clipPath26"><path
         d="M -32767,32767 H 32767 V -32767 H -32767 Z"
         id="path24"
         inkscape:connector-curvature="0" /></clipPath><radialGradient
       fx="0"
       fy="0"
       cx="0"
       cy="0"
       r="1"
       gradientUnits="userSpaceOnUse"
       gradientTransform="matrix(103.84326,0,0,-79.808609,195.56738,292.20703)"
       spreadMethod="pad"
       id="radialGradient34"><stop
         style="stop-opacity:1;stop-color:#ffffff"
         offset="0"
         id="stop28" /><stop
         style="stop-opacity:1;stop-color:#ffffff"
         offset="0.79908705"
         id="stop30" /><stop
         style="stop-opacity:0;stop-color:#ffffff"
         offset="1"
         id="stop32" /></radialGradient><mask
       maskUnits="userSpaceOnUse"
       x="0"
       y="0"
       width="1"
       height="1"
       id="mask36"><g
         id="g46"><g
           clip-path="url(#clipPath26)"
           id="g44"><g
             id="g42"><g
               id="g40"><path
                 d="M -32767,32767 H 32767 V -32767 H -32767 Z"
                 style="fill:url(#radialGradient34);stroke:none"
                 id="path38"
                 inkscape:connector-curvature="0" /></g></g></g></g></mask><radialGradient
       fx="0"
       fy="0"
       cx="0"
       cy="0"
       r="1"
       gradientUnits="userSpaceOnUse"
       gradientTransform="matrix(103.84326,0,0,-79.808609,195.56738,292.20703)"
       spreadMethod="pad"
       id="radialGradient58"><stop
         style="stop-opacity:1;stop-color:#ed1c24"
         offset="0"
         id="stop52" /><stop
         style="stop-opacity:1;stop-color:#ed1c24"
         offset="0.79908705"
         id="stop54" /><stop
         style="stop-opacity:1;stop-color:#ffffff"
         offset="1"
         id="stop56" /></radialGradient><clipPath
       clipPathUnits="userSpaceOnUse"
       id="clipPath68"><path
         d="m 134.607,297.793 v -0.053 c 0.015,-36.547 29.959,-66.192 66.852,-66.205 v 0 h 0.064 c 36.987,0.013 66.936,29.678 66.936,66.224 v 0 c 0,36.557 -29.962,66.223 -66.968,66.223 v 0 c -36.914,0 -66.869,-29.651 -66.884,-66.189"
         id="path66"
         inkscape:connector-curvature="0" /></clipPath><clipPath
       clipPathUnits="userSpaceOnUse"
       id="clipPath78"><path
         d="M 315.06886,251.30058 247.20796,411.1706 87.098412,343.20824 154.95932,183.33822 Z"
         id="path76"
         inkscape:connector-curvature="0" /></clipPath><linearGradient
       x1="0.0599976"
       y1="0"
       x2="0.94000202"
       y2="0"
       gradientUnits="userSpaceOnUse"
       gradientTransform="matrix(-78.144043,184.09554,-171.1344,-72.64212,325.35107,241.11133)"
       spreadMethod="pad"
       id="linearGradient90"><stop
         style="stop-opacity:1;stop-color:#7b7979"
         offset="0"
         id="stop80" /><stop
         style="stop-opacity:1;stop-color:#e9e9e9"
         offset="0.360001"
         id="stop82" /><stop
         style="stop-opacity:1;stop-color:#7b7979"
         offset="0.570007"
         id="stop84" /><stop
         style="stop-opacity:1;stop-color:#f8f8f8"
         offset="0.779999"
         id="stop86" /><stop
         style="stop-opacity:1;stop-color:#7b7979"
         offset="1"
         id="stop88" /></linearGradient><clipPath
       clipPathUnits="userSpaceOnUse"
       id="clipPath100"><path
         d="m 136.954,297.793 v -0.053 c 0.012,-35.267 28.905,-63.864 64.505,-63.877 v 0 h 0.064 c 35.695,0.013 64.589,28.635 64.589,63.896 v 0 c 0,35.281 -28.913,63.895 -64.621,63.895 v 0 c -35.617,0 -64.525,-28.601 -64.537,-63.861"
         id="path98"
         inkscape:connector-curvature="0" /></clipPath><clipPath
       clipPathUnits="userSpaceOnUse"
       id="clipPath110"><path
         d="m 264.62636,367.61008 -134.31756,-7.03923 6.97059,-133.00662 134.31756,7.03923 z"
         id="path108"
         inkscape:connector-curvature="0" /></clipPath><linearGradient
       x1="0.0200043"
       y1="0"
       x2="0.97999603"
       y2="0"
       gradientUnits="userSpaceOnUse"
       gradientTransform="matrix(-141.7814,-7.4303894,7.0505219,-134.53185,268.87158,369.18701)"
       spreadMethod="pad"
       id="linearGradient126"><stop
         style="stop-opacity:1;stop-color:#a7a5a6"
         offset="0"
         id="stop112" /><stop
         style="stop-opacity:1;stop-color:#c8c7c7"
         offset="0.160004"
         id="stop114" /><stop
         style="stop-opacity:1;stop-color:#ffffff"
         offset="0.300003"
         id="stop116" /><stop
         style="stop-opacity:1;stop-color:#c8c7c7"
         offset="0.5"
         id="stop118" /><stop
         style="stop-opacity:1;stop-color:#a7a5a6"
         offset="0.600006"
         id="stop120" /><stop
         style="stop-opacity:1;stop-color:#d1d0d0"
         offset="0.75"
         id="stop122" /><stop
         style="stop-opacity:1;stop-color:#ffffff"
         offset="1"
         id="stop124" /></linearGradient><clipPath
       clipPathUnits="userSpaceOnUse"
       id="clipPath136"><path
         d="m 195.379,354.766 c -26.553,-2.752 -47.752,-23.265 -51.267,-49.33 v 0 -15.342 c 3.228,-23.935 21.354,-43.181 44.844,-48.311 v 0 h 25.076 c 22.105,4.826 39.499,22.137 44.185,44.084 v 0 23.785 c -5.132,24.039 -25.504,42.512 -50.618,45.114 v 0 z"
         id="path134"
         inkscape:connector-curvature="0" /></clipPath><clipPath
       clipPathUnits="userSpaceOnUse"
       id="clipPath146"><path
         d="M 142.86181,241.78411 H 258.21746 V 356.1159 H 142.86181 Z"
         id="path144"
         inkscape:connector-curvature="0" /></clipPath><radialGradient
       fx="0"
       fy="0"
       cx="0"
       cy="0"
       r="1.23"
       gradientUnits="userSpaceOnUse"
       gradientTransform="matrix(115.87361,0,0,115.87361,160.21921,344.64453)"
       spreadMethod="pad"
       id="radialGradient156"><stop
         style="stop-opacity:1;stop-color:#ffffff"
         offset="0"
         id="stop148" /><stop
         style="stop-opacity:1;stop-color:#f4f4f4"
         offset="0.0800018"
         id="stop150" /><stop
         style="stop-opacity:1;stop-color:#bdbcbc"
         offset="0.460007"
         id="stop152" /><stop
         style="stop-opacity:1;stop-color:#a3a1a1"
         offset="1"
         id="stop154" /></radialGradient><clipPath
       clipPathUnits="userSpaceOnUse"
       id="clipPath194"><path
         d="M 0,595.275 H 841.889 V 0 H 0 Z"
         id="path192"
         inkscape:connector-curvature="0" /></clipPath></defs><sodipodi:namedview
     pagecolor="#ffffff"
     bordercolor="#666666"
     borderopacity="1"
     objecttolerance="10"
     gridtolerance="10"
     guidetolerance="10"
     inkscape:pageopacity="0"
     inkscape:pageshadow="2"
     inkscape:window-width="1896"
     inkscape:window-height="1057"
     id="namedview4"
     showgrid="false"
     fit-margin-top="2"
     fit-margin-left="2"
     fit-margin-right="2"
     fit-margin-bottom="2"
     inkscape:zoom="1.6820179"
     inkscape:cx="336.91783"
     inkscape:cy="96.190984"
     inkscape:window-x="24"
     inkscape:window-y="0"
     inkscape:window-maximized="1"
     inkscape:current-layer="g10" /><g
     id="g10"
     inkscape:groupmode="layer"
     inkscape:label="albatrans-logo-310712"
     transform="matrix(1.3333333,0,0,-1.3333333,-177.476,487.30932)"><g
       id="g62"><g
         id="g64"
         clip-path="url(#clipPath68)"><g
           id="g70"><g
             id="g72"><g
               id="g74"
               clip-path="url(#clipPath78)"><path
                 d="m 134.607,297.793 v -0.053 c 0.015,-36.547 29.959,-66.192 66.852,-66.205 v 0 h 0.064 c 36.987,0.013 66.936,29.678 66.936,66.224 v 0 c 0,36.557 -29.962,66.223 -66.968,66.223 v 0 c -36.914,0 -66.869,-29.651 -66.884,-66.189"
                 style="fill:url(#linearGradient90);stroke:none"
                 id="path92"
                 inkscape:connector-curvature="0" /></g></g></g></g></g><g
       id="g94"><g
         id="g96"
         clip-path="url(#clipPath100)"><g
           id="g102"><g
             id="g104"><g
               id="g106"
               clip-path="url(#clipPath110)"><path
                 d="m 136.954,297.793 v -0.053 c 0.012,-35.267 28.905,-63.864 64.505,-63.877 v 0 h 0.064 c 35.695,0.013 64.589,28.635 64.589,63.896 v 0 c 0,35.281 -28.913,63.895 -64.621,63.895 v 0 c -35.617,0 -64.525,-28.601 -64.537,-63.861"
                 style="fill:url(#linearGradient126);stroke:none"
                 id="path128"
                 inkscape:connector-curvature="0" /></g></g></g></g></g><g
       id="g130"><g
         id="g132"
         clip-path="url(#clipPath136)"><g
           id="g138"><g
             id="g140"><g
               id="g142"
               clip-path="url(#clipPath146)"><path
                 d="m 195.379,354.766 c -26.553,-2.752 -47.752,-23.265 -51.267,-49.33 v 0 -15.342 c 3.228,-23.935 21.354,-43.181 44.844,-48.311 v 0 h 25.076 c 22.105,4.826 39.499,22.137 44.185,44.084 v 0 23.785 c -5.132,24.039 -25.504,42.512 -50.618,45.114 v 0 z"
                 style="fill:url(#radialGradient156);stroke:none"
                 id="path158"
                 inkscape:connector-curvature="0" /></g></g></g></g></g><g
       id="g160"
       transform="translate(164.9727,284.9297)"><path
         d="M 0,0 18.461,31.759 35.303,0 Z M 42.914,-14.512 H -8.34 l 5.829,10.106 h 40.087 z"
         style="fill:#231f20;fill-opacity:1;fill-rule:evenodd;stroke:none"
         id="path162"
         inkscape:connector-curvature="0" /></g><g
       id="g164"
       transform="translate(247.2168,269.7021)"><path
         d="m 0,0 h -29.189 l -29.043,57.472 -32.903,-0.076 v 3.9 H 0 l -0.146,-3.824 h -29.859 z"
         style="fill:#231f20;fill-opacity:1;fill-rule:evenodd;stroke:none"
         id="path166"
         inkscape:connector-curvature="0" /></g><g
       id="g168"
       transform="translate(167.3193,285.2568)"><path
         d="M 0,0 18.462,31.744 35.23,0 Z M 42.915,-14.52 H -8.338 l 5.75,10.106 h 40.16 z"
         style="fill:#ed1c24;fill-opacity:1;fill-rule:evenodd;stroke:none"
         id="path170"
         inkscape:connector-curvature="0" /></g></g></svg>